<svg enable-background="new 0 0 28 28" viewBox="0 0 28 28" xmlns="http://www.w3.org/2000/svg"><path d="m10.8 12.7-.7 9.2h6.7l.7-9.2zm4.2 6.5c-.1.7-.7 1.4-1.5 1.4-.7 0-1.3-.6-1.3-1.4l.2-3.2c.1-.7.7-1.4 1.5-1.4.4 0 .7.2.9.4s.4.6.3 1z" fill="#b5ddff"/><path d="m18.9 21.9h-9.8l.1-.6h9.8z" fill="#66a6cc"/><path d="m22.7 18.5h.9s.1 0 .1-.1v-.1s0-.1-.1-.1h-.9s-.1 0-.1.1l.1.2c-.1-.1-.1 0 0 0z" fill="#e1e1e1"/><path d="m21.2 18.5h.9s.1 0 .1-.1v-.1s0-.1-.1-.1h-.9s-.1 0-.1.1l.1.2c-.1-.1 0 0 0 0z" fill="#e1e1e1"/><path d="m24.2 18.4h-20.2c-.2 0-.4-.2-.4-.4l-.6-12.2c0-.2.2-.4.4-.4h20.2c.2 0 .4.2.4.4l.6 12.2c0 .2-.2.4-.4.4z" fill="#e1e1e1"/><path d="m24.4 18.4h-20.2c-.2 0-.4-.2-.4-.4l-.6-12.2c0-.2.2-.4.4-.4h20.2c.2 0 .4.2.4.4l.6 12.2c.1.2-.1.4-.4.4z" fill="#66a6cc"/><path d="m4.4 17.5-.6-11.2c0-.2.1-.3.3-.3h19.3c.1 0 .3.1.3.3l.6 11.3c0 .1-.1.3-.3.3h-19.4c-.1-.1-.2-.2-.2-.4z" fill="#f5f5f5"/><path d="m5 6.6c0 .1-.1.2-.2.2s-.2-.1-.2-.2.1-.2.2-.2.2 0 .2.2z" fill="#b5ddff" opacity=".3"/><path d="m6.1 6.6c0 .1-.1.2-.2.2s-.3-.1-.3-.2.1-.2.2-.2c.1-.1.2 0 .3.2z" fill="#b5ddff" opacity=".3"/><path d="m7.1 6.6c0 .1-.1.2-.2.2s-.2-.1-.2-.2.1-.2.2-.2c.1-.1.2 0 .2.2z" fill="#b5ddff" opacity=".3"/><g fill="#b5ddff" opacity=".3"><path d="m6.4 17.8h2.8l2.5-11.8h-2.8z"/><path d="m18.4 17.8h.7l2.5-11.8h-.7z"/><path d="m9.8 17.8h3.9l2.6-11.8h-4z"/></g><ellipse cx="14" cy="23.7" fill="#b5ddff" opacity=".8" rx="10.7" ry=".6"/><path d="m20.1 15.3c-1.5-.1-2.5-1.4-2.5-1.4-.1-.1-.1-.3 0-.3.1-.1.3-.1.3 0 0 0 .9 1.1 2.1 1.2.4-.4.7-1.4.7-1.7 0-.1 0-.4.1-.6.1-.1.2-.2.3-.1s.2.2.1.3v.4c.1.5-.4 1.8-.9 2.2-.1 0-.1 0-.2 0z" fill="#003a70"/><path d="m8.5 14c-.4 0-1.7-.1-2.7-1.2-.1-.1-.1-.2 0-.3.4-.5 1.1-1.8 1.2-2.2 0-.1-.1-.2-.2-.2s-.1-.1-.1-.2v-.4c0-.1.1-.3.2-.3s.3.1.3.2v.3c.2.2.4.4.4.5v.1c-.1.4-.8 1.7-1.2 2.3 1 1 2.2.9 2.3.9s.3.1.3.2-.1.3-.2.3c-.2 0-.2 0-.3 0z" fill="#003a70"/><path d="m16.4 23.7h-.7c-.1 0-.1 0-.2-.1 0-.1-.1-.1 0-.2.2-.6.3-1.1.3-1.9-.2-1.1-.5-2.1-.5-2.1 0-.1.1-.3.2-.3s.3.1.3.2c0 0 .2 1 .5 2.1v.1c-.1.7-.1 1.2-.3 1.7h.3c.1 0 .2.1.2.2s0 .3-.1.3z" fill="#003a70"/><path d="m11.3 23.7h-.4c-.1 0-.1 0-.2-.1 0-.1-.1-.1-.1-.2.1-.5.4-1.3.7-2.1.1-1.1.2-2 .2-2 0-.1.1-.2.3-.2.1 0 .2.1.2.3 0 0-.1 1-.2 2.1v.1c-.2.6-.5 1.3-.6 1.7h.1c.1 0 .2.1.2.2s-.1.2-.2.2z" fill="#003a70"/><path d="m11.5 7-2.9 2.8c-.1 3.2-.1 6.5 0 10h9.5c-.2-4.5-.2-8.7 0-12.8z" fill="#fff"/><path d="m18.1 19.8h-9.5c-.1-3.6-.1-6.9 0-10l2.9-2.9h6.6c-.1 4-.1 8.2 0 12.9.1 0 .1 0 0 0zm-9.4-.1h9.4c-.2-4.7-.2-8.8 0-12.7h-6.5l-2.9 2.8c-.1 3-.1 6.4 0 9.9z" fill="#003a70"/><text transform="translate(12.6943 16.9775)"><tspan fill="#002c4c" font-family="'MyriadPro-Regular'" font-size="1.0208" x="0" y="0">NO</tspan><tspan fill="#002c4c" font-family="'MyriadPro-Regular'" font-size="1.0208" x="-1.8" y="1">Data Found</tspan></text><g fill="#003a70"><path d="m16.4 18.4h-1 1c0-.1 0 0 0 0z"/><path d="m15 18.4h-4.6 4.6c0-.1 0 0 0 0z"/><path d="m12.1 12.9c0-.2-.1-.4-.3-.4s-.3.2-.3.4.1.4.3.4.3-.2.3-.4z"/><path d="m15.4 12.8c0-.2-.1-.4-.3-.4s-.3.2-.3.4.1.4.3.4c.2.1.3-.1.3-.4z"/><path d="m12.9 13.9c.9-.3 1.5.1 1.6.1v.1h-.1s-.8-.4-1.7.1h-.1v-.1c.1-.1.2-.2.3-.2z"/><path d="m11.6 10.7c.1.1.2.1.1.2-.4.7-1 .7-1.1.7s-.1-.1-.1-.1c0-.1.1-.1.1-.1s.5 0 .8-.6c.1-.1.1-.1.2-.1z"/><path d="m14.9 10.6h.1c.4.4.9.4 1 .3.1 0 .2 0 .2.1s0 .1-.1.2c0 0-.7.1-1.2-.4-.1 0-.1-.1 0-.2z"/></g><path d="m18 12.1h-.4c-.1 0-.3-.1-.3-.2l-.6-2.5c0-.2.1-.3.2-.3l1.1-.3z" opacity=".2"/><path d="m11.8 10.1c-.3-.8-.6-2-.3-3.1l-2.9 2.8c.9.3 2.1.4 3.2.3z" opacity=".2"/><path d="m11.5 9.8c-.3-.9-.2-2.2 0-2.9l-2.9 2.9c.9.2 1.9.1 2.9 0z" fill="#66a6cc"/><path d="m10 10c-.5 0-.9 0-1.3-.1l2.9-2.9h.1v.1c-.2.6-.3 1.9 0 2.8-.8 0-1.3.1-1.7.1zm-1.3-.2c.8.1 1.6.1 2.7 0-.3-.8-.2-1.9 0-2.7z" fill="#003a70"/><path d="m21.3 14-1.1-3.9s0-.1.1-.1c0 0 .1 0 .1.1l1 3.8s0 .1-.1.1z" fill="#003a70"/><path d="m23.2 8.4h.1v.3h-.1z" fill="#003a70" transform="matrix(.9673 -.2538 .2538 .9673 -1.4043 6.1651)"/><path d="m23 8.1-.2-.8c0-.2-.2-.3-.4-.3h-.1l-.6.1v-.1l.6-.1h.1c.2 0 .4.1.5.4z" fill="#003a70"/><path d="m22.2 10.4-3.3.9c-.7.2-1.4-.2-1.6-.9l-.2-.6c-.2-.7.2-1.4.9-1.6l3.3-.9c.7-.2 1.4.2 1.6.9l.2.6c.2.7-.2 1.4-.9 1.6z" fill="#003a70"/><path d="m18 9.4.7-.2v.2l-.4.1v.1l.4-.1v.2l-.4.1v.2l.4-.1v.2l-.7.2z" fill="#fff"/><path d="m19 10-.2-.8.4-.1h.2.1s.1.1.1.1v.1s0 .1-.1.1c0 0 0 0-.1.1h.1.1l.2.2-.3.1-.2-.2s0 0-.1 0c0 0 0 0-.1 0l.1.3zm.1-.5h.1.1s0 0 0-.1c0 0 0 0 0-.1h-.1-.1z" fill="#fff"/><path d="m19.9 9.8-.2-.8.4-.1h.2.1s.1.1.1.1v.1s0 .1-.1.1c0 0 0 0-.1.1h.1.1l.2.2-.3.1-.2-.2s0 0-.1 0c0 0 0 0-.1 0l.1.3zm.1-.6h.1.1s0 0 0-.1c0 0 0 0 0-.1h-.1-.1z" fill="#fff"/><path d="m20.6 9.2c0-.1 0-.2 0-.3.1-.1.1-.2.3-.2h.3c.1.1.2.1.2.3v.2c0 .1 0 .1-.1.2-.1 0-.1.1-.2.1s-.2 0-.2 0c-.1 0-.1 0-.2-.1s-.1-.2-.1-.2zm.2-.1c0 .1.1.1.1.2h.1c.1 0 .1 0 .1-.1 0 0 0-.1 0-.2s0-.1-.1-.2h-.1s-.1 0-.1.1z" fill="#fff"/><path d="m21.6 9.3-.2-.8.4-.1h.2.1s.1.1.1.1v.1s0 .1-.1.1c0 0 0 0-.1.1h.1.1l.2.2-.3.1-.2-.1s0 0-.1 0c0 0 0 0-.1 0l.1.3zm.2-.5h.1.1s0 0 0-.1c0 0 0 0 0-.1h-.1-.1z" fill="#fff"/></svg>